# xmcd
#
# Track frame offsets:
#  150
#  19969
#  38713
#  52830
#  68825
#  89364
#  102191
#  117679
#  135542
#  154888
#  165395
#  179970
#
# Disc length: 2653 seconds
#
# Revision: 0
# Processed by: cddbd v1.5.1PL2 Copyright (c) Steve Scherf et al.
# Submitted via: Collectorz.com_Music_Collector 6.11
#
DISCID=a20a5b0c
DTITLE=Danny George Wilson - The Famous Mad Mile
DYEAR=2006
DGENRE=
TTITLE0=Somewhere Else Instead
TTITLE1=Old Soul
TTITLE2=The Famous Mad Mile
TTITLE3=Fishing Line
TTITLE4=The Bellringer
TTITLE5=Baby, I'm On Your Side
TTITLE6=Beauty In This Town
TTITLE7=Every Cloud
TTITLE8=Painted Pebble
TTITLE9=The Famous Mad Mile (Live)
TTITLE10=Beauty In This Town (Live)
TTITLE11=The Bellringer (Live)
EXTD=
EXTT0=
EXTT1=
EXTT2=
EXTT3=
EXTT4=
EXTT5=
EXTT6=
EXTT7=
EXTT8=
EXTT9=
EXTT10=
EXTT11=
PLAYORDER=
